<svg version="1.1" class="has-solid " viewBox="0 0 36 36" preserveAspectRatio="xMidYMid meet" xmlns="http://www.w3.org/2000/svg" xmlns:xlink="http://www.w3.org/1999/xlink" focusable="false" role="img" width="45" height="45" fill="currentColor"><path d="M32,6H4A2,2,0,0,0,2,8V28a2,2,0,0,0,2,2H32a2,2,0,0,0,2-2V8A2,2,0,0,0,32,6Zm0,22H4V8H32Z" class="clr-i-outline clr-i-outline-path-1"/><path d="M9,14H27a1,1,0,0,0,0-2H9a1,1,0,0,0,0,2Z" class="clr-i-outline clr-i-outline-path-2"/><path d="M9,18H27a1,1,0,0,0,0-2H9a1,1,0,0,0,0,2Z" class="clr-i-outline clr-i-outline-path-3"/><path d="M9,22H19a1,1,0,0,0,0-2H9a1,1,0,0,0,0,2Z" class="clr-i-outline clr-i-outline-path-4"/><path d="M32,6H4A2,2,0,0,0,2,8V28a2,2,0,0,0,2,2H32a2,2,0,0,0,2-2V8A2,2,0,0,0,32,6ZM19,22H9a1,1,0,0,1,0-2H19a1,1,0,0,1,0,2Zm8-4H9a1,1,0,0,1,0-2H27a1,1,0,0,1,0,2Zm0-4H9a1,1,0,0,1,0-2H27a1,1,0,0,1,0,2Z" class="clr-i-solid clr-i-solid-path-1" style="display:none"/></svg>